<mxfile host="app.diagrams.net" modified="2024-05-08T16:37:00.580Z" agent="Mozilla/5.0 (Windows NT 10.0; Win64; x64) AppleWebKit/537.36 (KHTML, like Gecko) Chrome/124.0.0.0 Safari/537.36" version="24.3.1" etag="7QSbzLZiatx5Ho5HkGZe" type="github">
  <diagram name="Page-1" id="sg-cR9yrSYeOZuQSzNu2">
    <mxGraphModel>
      <root>
        <mxCell id="0" />
        <mxCell id="1" parent="0" />
      </root>
    </mxGraphModel>
  </diagram>
</mxfile>
